<?xml version="1.0" encoding="utf-8"?>
<!-- Generator: Adobe Illustrator 25.0.0, SVG Export Plug-In . SVG Version: 6.00 Build 0)  -->
<svg version="1.1" id="Layer_1" xmlns="http://www.w3.org/2000/svg" xmlns:xlink="http://www.w3.org/1999/xlink" x="0px" y="0px"
	 viewBox="0 0 2352.2 2000" style="enable-background:new 0 0 2352.2 2000;" xml:space="preserve">
<style type="text/css">
	.st0{display:none;fill:#FFFFFF;}
	.st1{fill:#96D9C9;}
	.st2{fill:#3C8F7C;}
	.st3{fill:#50BFA5;}
	.st4{fill:#184655;}
	.st5{fill:#86B1F2;}
	.st6{fill:#FAE0B2;}
	.st7{fill:#355389;}
	.st8{fill:#466EB6;}
	.st9{fill:#FF4C16;}
	.st10{fill:#F47458;}
	.st11{fill:#58DA90;}
	.st12{fill:#13375B;}
	.st13{fill:#F7CC7F;}
	.st14{fill:#9BC1F9;}
	.st15{fill:#F48C7F;}
	.st16{display:none;}
	.st17{display:inline;fill:#9BC1F9;}
	.st18{display:inline;}
	.st19{fill:#FFFFFF;}
	.st20{fill:#3259A1;}
	.st21{fill:#FFA283;}
	.st22{fill:#219653;}
	.st23{opacity:0.68;fill:#FF7F4C;enable-background:new    ;}
	.st24{fill:#011037;}
	.st25{fill:#A4C0F5;}
</style>
<g>
	<rect class="st0" width="2352.2" height="2000"/>
	<g>
		<g>
			<path class="st1" d="M1407.1,867.2l25.6-24.8c-8-44.8-50-66.3-77.7-69.2c-74.5-7.9-112.4,43.3-128.4,125.4
				c-29.2,149.9,7.6,779.3,7.6,779.3c2.8-16.7,205-648.8,199.8-822.4L1407.1,867.2z"/>
			<path class="st2" d="M456.1,1412.5l-2.8,20.4l-6.6-23.6c-18.5-5.8-34.6-7.8-47.4-4.9c-114,25.9,83,182.7,83,182.7
				s-62.8-39.4-123.6-64.4l-0.8,20.7l-7.8-23.3c-47.2-18.5-91.1-27-99.8-0.3c-8.2,25.1,8.4,48.9,36.9,70.1l32.8,1.2l-19.4,8.1
				c65.9,42.2,175,72.4,212.7,79.3c-36-5.7-124.1-17.1-176.2-5.8l8.2,13.6l-20.6-10.3c-18.3,5.9-29.6,15.6-28.4,31
				c2.3,29.4,129.7,39.9,129.7,39.9l465.4-4.3l2.6,1.3C894.1,1743.8,606.1,1467.5,456.1,1412.5z"/>
			<path class="st3" d="M2072.3,1674.6c-10.4-48.1-115.4-62.2-249.4-35.8c47.7-16.3,113.2-53.4,147.2-70.3l-23.2-14.8l46.6,2.2
				c38.1-22.3,57.2-44.2,44.7-64.1c-9.3-14.8-29.7-21-57.4-20.9l-14.6,26.1l3-25.7c-69.8,4-85.6-7.4-179.7,30.7
				c58.8-30.5,67.3-40,71.2-52.3l-31.9-13.9h37.3c30.2-32.5,78.1-96.7,58.2-126.3c-16.4-24.4-88.3,9.5-134.2,27.1l-19.5,43.9
				l3.9-37.5c-146,63.6-96.5,12.6-96.5,12.6s152.4-315.2,62.6-308.2c-35.4,2.8-73.6,24.2-111,58.4l-0.9,31.3l-11.1-19.9
				c-27.3,26.7-54.3,59.1-80,93.8c34.9-73.4,61.4-145.5,64.1-199.1l-26.7-3.2l26.3-18.3c-2.5-27.1-13.2-47.6-35-58.5
				c-33.4-16.6-68.4,8.5-102.9,58.5l8.5,45.1l-21.4-25.3c-123.5,201.3-236.4,696.7-236.4,696.7l-9,26.9l362.8,17.9
				C1568.1,1751.7,2093.2,1771.7,2072.3,1674.6z"/>
			<g>
				<path class="st4" d="M2117.3,1754.1H235c-3.1,0-5.7-2.7-5.7-6s2.5-6,5.7-6h1882.3c3.1,0,5.7,2.7,5.7,6
					S2120.4,1754.1,2117.3,1754.1z"/>
			</g>
			<path class="st5" d="M1538.8,1540.6H687.9c-32.5,0-58.8-23.9-58.8-53.4v-31.7c0-29.5,26.3-53.4,58.8-53.4h850.9l0,0
				c-38.9,38.6-39.6,97.6-1.6,136.9L1538.8,1540.6z"/>
			<path class="st6" d="M1526.9,1418h-428.2c-29.5,0-53.4,23.9-53.4,53.4l0,0c0,29.5,23.9,53.4,53.4,53.4h428.2
				C1506.9,1492,1506.9,1450.7,1526.9,1418z"/>
			<g>
				<path class="st7" d="M1500.5,1250.7c1.9-3.2-1-6.9-5.3-6.9H817.6c-53.1,0-96.2,35.5-96.2,79.4l0,0c0,43.8,43.1,79.4,96.2,79.4
					h677.8c4.3,0,7.2-3.7,5.3-6.9l0,0C1473.8,1349.7,1473.9,1296.3,1500.5,1250.7z"/>
				<path class="st6" d="M1495.1,1260.8h-454.7c-33.6,0-60.8,27.2-60.8,60.8v4.6c0,33.6,27.2,60.8,60.8,60.8h455.6
					C1475.7,1346.6,1475.5,1301.3,1495.1,1260.8z"/>
			</g>
			<path class="st6" d="M675.8,1236.7h437.3c38.8,0,70.2-33.9,70.2-75.7l0,0c0-41.8-31.4-75.7-70.2-75.7H675.8l0,0
				c33.4,42,34.7,103.6,3.1,147.1L675.8,1236.7z"/>
			<path class="st8" d="M1177.6,1161L1177.6,1161c0-41.8-31.8-75.7-71-75.7H667.8c-2,0-3.7-1.8-3.7-4l0,0c0-2.2,1.7-3.9,3.7-3.9
				h695.9c43.3,0,78.4,37.4,78.4,83.6l0,0c0,46.2-35.1,83.6-78.4,83.6H667.8c-2,0-3.7-1.7-3.7-3.9l0,0c0-2.2,1.6-4,3.7-4h438.7
				C1145.8,1236.7,1177.6,1202.8,1177.6,1161z"/>
			<g>
				<path class="st9" d="M1208.6,1324.4h-46.8c-10.1,0-18.2,3.1-18.2,7v0.6h65V1324.4z"/>
				<path class="st10" d="M1248.5,1341.9c0-9.7-12.2-17.5-27.3-17.5h-60.1c11.4,0,20.7,5.9,20.7,13.3l-0.3,187.4l33.2-24.1
					l33.8,24.1L1248.5,1341.9z"/>
			</g>
			<g>
				<path class="st11" d="M1888.7,1540.3H624.3c-39.3,0-71.1,31.8-71.1,71.1v59.8c0,39.3,31.8,71.1,71.1,71.1h1264.3l-0.7-0.7
					C1833.9,1685.3,1834.2,1596.3,1888.7,1540.3z"/>
				<path class="st6" d="M1866.3,1570.2h-675.9c-39.3,0-71.1,31.8-71.1,71.1l0,0c0,39.3,31.8,71.1,71.1,71.1h675.9
					C1841.4,1668.4,1841.4,1614.2,1866.3,1570.2z"/>
			</g>
			<g>
				<path class="st12" d="M1534.4,1641.7h-54.8c-11.8,0-21.3,9.6-21.3,21.3v1.9h76.2V1641.7z"/>
				<path class="st7" d="M1481.8,1641.8c13.1,0,32.7,11.1,43.7,24.8l130,161.2l76.4,0l-123.6-153.3c-14.6-18-40.3-32.7-57.6-32.7
					L1481.8,1641.8z"/>
			</g>
			<g>
				<path class="st13" d="M565,1121.2c-32.4,4.9-42.5,47.2-15.9,66.5c4.8,3.5,8.1,8.6,9.4,14.4l4.6,19.8c1.3,5.5,6.5,9,12.1,8.2
					l12.3-1.9c5.5-0.8,9.5-5.8,9.1-11.4c-1.4-20.4-3.4-27.8,3.3-36.8C619.6,1153.7,597.4,1116.3,565,1121.2z"/>
				<g>
					<path class="st6" d="M572.1,1214.6C572.1,1214.6,572,1214.6,572.1,1214.6c-1.7,0.2-3.2-0.9-3.4-2.5l-6-43.2l-10.1-8.7
						c-1.2-1.1-1.4-2.9-0.3-4.2c1.1-1.2,3-1.4,4.2-0.3l11.8,10.1l6.3,45.4C574.8,1212.9,573.7,1214.4,572.1,1214.6z"/>
				</g>
				<g>
					<path class="st6" d="M587.1,1214.2C587.1,1214.2,587.1,1214.2,587.1,1214.2c1.7-0.3,2.8-1.8,2.5-3.4l-7-43l7.1-11.3
						c0.9-1.4,0.5-3.2-0.9-4.1s-3.2-0.5-4.1,0.9l-8.3,13.2l7.4,45.3C584,1213.4,585.5,1214.5,587.1,1214.2z"/>
				</g>
				<path class="st1" d="M558.3,1201.6c0,0.2,0.1,0.3,0.1,0.5l4.6,19.8c1.3,5.5,6.5,9,12.1,8.2l12.3-1.9c5.5-0.8,9.5-5.8,9.1-11.4
					c-0.6-9.1-1.4-15.6-1.4-20.8L558.3,1201.6z"/>
			</g>
			<path class="st10" d="M558.9,806L546,787.4l-22.6,0c-2.6,0-4-2.9-2.5-5l13.7-18l-7-21.5c-0.8-2.4,1.5-4.7,4-3.9l21.3,7.5
				l18.2-13.3c2.1-1.5,5,0,4.9,2.6l-0.5,22.6l18.3,13.2c2.1,1.5,1.5,4.8-0.9,5.5l-21.6,6.5l-6.9,21.5
				C563.6,807.6,560.3,808.1,558.9,806z"/>
			<path class="st14" d="M1747.6,839.6l-9.4-13.6l-16.6,0c-1.9,0-3-2.2-1.8-3.7l10.1-13.2l-5.2-15.8c-0.6-1.8,1.1-3.5,2.9-2.9
				l15.6,5.5l13.4-9.8c1.5-1.1,3.7,0,3.6,1.9l-0.4,16.6l13.4,9.7c1.5,1.1,1.1,3.5-0.7,4l-15.9,4.8l-5.1,15.8
				C1751,840.8,1748.6,841.2,1747.6,839.6z"/>
			<polygon class="st15" points="1483.3,639.2 1462.4,635.7 1450.2,653.4 1427.1,647.8 1420,670.8 1393.6,665.6 1384.4,685.9 
				1358.2,685.1 1358.5,675.2 1378.1,675.8 1387.8,654.3 1413.2,659.3 1420.4,636 1445.9,642.2 1457.8,624.8 1477.2,628.1 
				1482.6,615 1491.8,618.9 			"/>
			<polygon class="st3" points="891.5,703.8 876.2,708.5 866,684.7 842.8,688.8 832.2,672.3 823.9,677.7 838,699.8 860,695.9 
				870.6,720.5 893.6,713.5 			"/>
			<path class="st15" d="M442,955.2l-22.9,13.9l23.7,106.5c2,9.2,12.5,13.7,20.6,8.8l0,0c5.1-3.1,7.6-9.1,6.2-14.9l-5.8-25l24-14.6
				l19.8,16.6c4.5,3.8,11,4.3,16,1.2l0.4-0.3c8.1-4.9,8.9-16.3,1.7-22.3L442,955.2z M457.5,1019.3l-4.4-19.6l15.4,12.9L457.5,1019.3
				z"/>
			<path class="st13" d="M1820.4,1055.9c1.2-3,0.8-13.8,15.8-24.2c6.2-4.2,11.2-7.8,12.6-12.7c2.4-8.5-6.6-12.6-15.5-12.5
				c-4.6,0-8.4-3.7-8.5-8.3l0,0c-0.2-4.7,3.5-8.6,8.2-8.8c5.1-0.2,11.1,0.2,17.4,2c19.1,5.3,24.9,18.3,21.6,30.3
				c-3.1,11-11.9,16.4-19.1,20.9c-12.1,7.7-12.1,16.3-13.2,18.7L1820.4,1055.9z M1811.1,1074.8c2.1-7.7,9-11.7,16.6-9.6
				c7.8,2.2,11.4,9.1,9.4,16.8c-2.1,7.5-8.9,11.8-16.7,9.6C1812.7,1089.5,1809,1082.4,1811.1,1074.8z"/>
			<path class="st1" d="M709.2,793.8c5.9,0.5,17.3,2.8,27.8,5.9c12.9,3.7,20.4,7.2,26.1,13.1c5.5,5.3,8.4,13,6,21.5
				c-2.4,8.3-9.4,14.7-21.1,15.5l-0.1,0.3c9.8,6,15.4,16.2,12,28.3c-2.4,8.5-8.2,14-15.4,17c-8.3,3.5-20.6,3.3-39.1-2
				c-10.4-3-18-5.9-22.5-7.9L709.2,793.8z M719.9,835.5l6.9,2c11.1,3.2,18.3,0.3,20.3-6.6c2-7.1-2.3-12.3-11.9-15.1
				c-4.6-1.3-7.3-1.8-9.2-2L719.9,835.5z M708,876.9c2,0.9,4.5,1.6,8.1,2.6c9.6,2.7,19,1.5,21.8-8.3c2.7-9.4-4.7-15.6-15.2-18.6
				l-7.2-2.1L708,876.9z"/>
			<path class="st13" d="M1613.2,834.2c1.2,5.2-2,10.4-7.2,11.7c-4.8,1.2-11,2.1-18.1,2.3c-36.8,1.2-56.5-21-57.5-51.3
				c-1.2-36.3,24-57.4,56.2-58.5c6.4-0.2,12,0.3,16.6,1c5.5,1,9,6.3,7.8,11.7l-0.1,0.3c-1.1,5.1-6.1,8.5-11.2,7.5
				c-3.4-0.6-7.2-0.9-11.4-0.8c-19.1,0.6-33.6,12.7-32.8,36.4c0.7,21.3,13.8,34.3,35.3,33.6c3.6-0.1,7.3-0.6,10.8-1.4
				C1606.9,825.7,1612,829,1613.2,834.2L1613.2,834.2z"/>
			<path class="st8" d="M419.9,1329.6c-2.6-7.6,1.7-16.2,9.4-18.7c8-2.6,15.2,1.3,18.2,9.2c2.9,8-0.3,15.9-8.6,18.9
				C430.5,1342,422.7,1337.8,419.9,1329.6z M417.3,1306.5l-24.8-59.2c-2-4.9,0.4-10.5,5.4-12.3l6-2.2c5-1.8,10.5,0.9,12,6l18.8,61.4
				L417.3,1306.5z"/>
			<g class="st16">
				<path class="st17" d="M1672.3,409.4h-244.4c-65.5,0-118.6-53.1-118.6-118.6l0,0c0-65.5,53.1-118.6,118.6-118.6h244.4
					c65.5,0,118.6,53.1,118.6,118.6l0,0C1790.9,356.3,1737.8,409.4,1672.3,409.4z"/>
				<polygon class="st17" points="1333.6,309.2 1279.6,371.4 1365.6,356.8 				"/>
				<g class="st18">
					<path class="st19" d="M1379,263.7h351.8c4.6,0,8.4-3.8,8.4-8.4c0-4.6-3.8-8.4-8.4-8.4H1379c-4.6,0-8.4,3.8-8.4,8.4
						C1370.6,259.9,1374.4,263.7,1379,263.7z"/>
				</g>
				<g class="st18">
					<path class="st19" d="M1379,326h351.8c4.6,0,8.4-3.8,8.4-8.4c0-4.6-3.8-8.4-8.4-8.4H1379c-4.6,0-8.4,3.8-8.4,8.4
						S1374.4,326,1379,326z"/>

				</g>
			</g>
			<g>
				<g>
          <path class="st20" d="M1077.2,492c34.4-27.9,124.7,10.7,138.2,28.7c13.2,17.7,40.1,204.5,20.3,217.4
						c-19.8,12.9-80.9,39.1-106.3,16C1103.9,731,1077.2,492,1077.2,492z"/>
					<path class="st21" d="M1046.3,481.9c0,0-58.5-29.9-66.5-44.8s-41-64.9-41-64.9s-16.9,2.1-21.4,9.7
						c5.5,20.6,22.4,77.7,44.1,94.6c21.8,16.8,79.2,51.5,79.2,51.5L1046.3,481.9z"/>
					<g>
						<path class="st21" d="M1034.7,834.3c0,0-2,40.6-2,65.4s38.1,121.8,34.7,135.7c-3.5,13.9,35.9,12,35.9,12s2.7-75.4-7.5-111
							c-10.2-35.7,0-108.9,0-108.9L1034.7,834.3z"/>
						<path class="st21" d="M1130.4,814.8c0,0,12.8,67.1,23.2,82.5c10.4,15.3,66.4,119.8,66.4,133.2s35.2,2.5,35.2,2.5
							s-29.7-114.4-41.6-149s-16.3-63.4-16.3-63.4L1130.4,814.8z"/>
					</g>
					<path class="st12" d="M1034.2,748.2c-3.6,22.1-18.4,156.2-18.4,156.2s50.5,15.5,80.7,8.6c0,0-0.8-107.8,6.1-107.8
						c0.1,0,0.1,0,0.2,0c9.9,0,18.6,7,21,16.6c5.8,23.2,21.7,93.3,21.7,93.3s63.8-8.9,77.7-15.3c0,0-21.3-151.7-44.6-175l-27.9-25.1
						l-101.8-13.1C1048.8,686.5,1036.8,732.5,1034.2,748.2z"/>
					<path class="st8" d="M1007.5,1078h108.2c0,0,2.2-39.1-5.2-46.6c-7.4-7.4-5.4,0.9-17.8,5.7c-12.4,4.7-20.4-6.7-26.1-12.3
						c-5.7-5.7-1.6,18.1-25.4,18.1S1002,1067.1,1007.5,1078z"/>
					<path class="st8" d="M1218.8,1026.1c-5.6,1.3-23.2,15.7-29.1,31.2c-5.8,15.5-4.2,21.1-4.2,21.1s17.9,8,52.3,5.4
						s29.1-6.3,29.1-6.3s-2.4-35.3-8.3-46.1C1252.8,1020.7,1228.6,1023.9,1218.8,1026.1z"/>
					<path class="st21" d="M1244.1,590.4c35.3,57,55.8,96.2,36,120.9c-21.6,27.1-67.2,21.8-88.3,44.8c-19.8-7.3-23.8-26.9-23.8-26.9
						s8.1-2.6,20.4-6.7c40.7-17.7,57.8-28.1,52.2-47.4s-25.5-45-25.5-45C1224.3,588.6,1244.1,590.4,1244.1,590.4z"/>
					<path class="st22" d="M1265.2,600.5c0,0-27.1,40-48.2,40.7c-13.9-20.9-20.1-32.9-20.2-30.6c-0.2,2.6-0.1,70.8-3.7,108.1
						c-27.9,16.2-159.1,5.5-159.2-11.6c-0.1-13,31.6-143.7,13.4-158c-6.6-5.2-62.9-35.4-62.9-35.4s23.5-46.2,38-60.5
						c0,0,28.2,14.8,55.2,25.6c35.4,14.2,65.1,18.2,84.8,27.3C1231.6,538.3,1236.8,553.8,1265.2,600.5z"/>
					<path class="st8" d="M1165.3,507.5c-18.4,54.9,5.1,171.9,31.1,201.1c7.5-18.1-21.4-91.7-0.1-185.1
						C1197,518.8,1167.2,502.5,1165.3,507.5z"/>
					<path class="st8" d="M1114.1,491.2c-26.6,28.9-66.4,136.2-67.3,141.5c1.2-93.8,37-138.2,42.9-149.1
						C1093.6,481,1114.5,488.4,1114.1,491.2z"/>
					<path class="st21" d="M1109.4,463.9v49c0,0,17.9,19.3,41.2,5.9l10.7-63.1L1109.4,463.9z"/>
					<path class="st23" d="M1109.4,488.6c14.8,3.7,33.2-2.6,48.9-15.1l3-17.8l-51.9,8.1L1109.4,488.6L1109.4,488.6z"/>
					<path class="st21" d="M1110.8,378.8c0,0-50.6,60.7-27.5,90.5c23.1,29.8,75.3,9.6,101.2-28.1
						C1210.3,403.6,1120.3,350.7,1110.8,378.8z"/>
					<path class="st24" d="M1160.2,400.8c0,0,18.6,0.6,11.2,18c-7.3,17.4-20.5,23.3-13.5,30.4c4.8,4.8,2.1,14.7-0.1,20.4
						c-1.1,3-1.3,6.2-0.4,9.2l0.1,0.4c2.1,6.7,8.5,11.1,15.5,10.5c17-1.5,45.5-10,43.9-51.2c0,0,14.2-26.4,0.1-46.6
						c-14.1-20.2-24.8-18.5-24.8-18.5s-5.1-19.1-20.8-23.6s-61.8-20.8-66.9,4.5C1099.6,379.4,1122,397.9,1160.2,400.8z"/>
					<path class="st21" d="M1155.3,432.5c1.3-0.7,20-9.3,22.8,1.3c2.6,9.9-1,25.1-14.4,25.1C1150.2,458.9,1138.4,441.1,1155.3,432.5
						z"/>
					<path class="st25" d="M1115.7,1078c0,0,0.5-8.1,0.3-17.7c-12.7,5.5-82.3,4.6-107.6,4.1c-2.2,5.1-2.6,10-0.9,13.6L1115.7,1078
						L1115.7,1078z"/>
					<path class="st25" d="M1237.8,1083.8c34.4-2.5,29.1-6.3,29.1-6.3s-0.6-8.1-1.8-17.8h0c-23.9,21.3-61.3,10.4-77.6,4.1
						c-3.2,10.6-2,14.5-2,14.5S1203.5,1086.4,1237.8,1083.8z"/>
				</g>
				<path class="st21" d="M923.5,400.6c8.3-2.3,18.8-6.8,26.4-10.3c-3.3-4.4-5.6-7.8-6.1-9.4c-2.3-7.4,12.4-36.5,10-38.9
					c-2.4-2.4-11.4,12.7-12.9,11.3s-3.6-34.7-8.5-34.6c-4.9,0.1,0,28.2-3.1,28.3c-3.1,0.1-8.5-33.5-13.4-30
					c-4.9,3.5,6.8,29.4,3.5,30.8c-3.3,1.4-12.6-23.2-16.1-23.1c-3.5,0.1-0.9,5.5,1.6,12s6.7,15.4,4.7,15.4s-11.8-15.5-15.2-14.3
					s24.1,46,26.5,55.9C921.2,394.9,922,397.3,923.5,400.
			</g>
		</g>
	</g>
</g>
<image style="overflow:visible;enable-background:new    ;" width="1354" height="119" xlink:href="CDAF3619.jpeg"  transform="matrix(0.9916 0 0 0.9916 4.4965 -146.2449)">
</image>
</svg>
