<?xml version="1.0" encoding="utf-8"?>
<!-- Generator: Adobe Illustrator 24.0.2, SVG Export Plug-In . SVG Version: 6.00 Build 0)  -->
<svg version="1.1" xmlns="http://www.w3.org/2000/svg" xmlns:xlink="http://www.w3.org/1999/xlink" x="0px" y="0px"
	 viewBox="0 0 500 500" style="enable-background:new 0 0 500 500;" xml:space="preserve">
<style type="text/css">
	.st0{fill:#EBEBEB;}
	.st1{fill:#E0E0E0;}
	.st2{fill:#F5F5F5;}
	.st3{fill:#E6E6E6;}
	.st4{fill:#F0F0F0;}
	.st5{fill:#FFFFFF;}
	.st6{fill:#FAFAFA;}
	.st7{opacity:0.6;fill:#E0E0E0;}
	.st8{display:none;}
	.st9{display:inline;}
	.st10{fill:#407BFF;}
	.st11{opacity:0.9;fill:#FFFFFF;}
	.st12{fill:#67AC65;}
	.st13{opacity:0.8;fill:#FFFFFF;}
	.st14{opacity:0.3;fill:#FFFFFF;}
	.st15{fill:#A2C03B;}
	.st16{opacity:0.3;}
	.st17{fill:#263238;}
	.st18{fill:#803E3C;}
	.st19{fill:#7F3E3B;}
	.st20{fill:#630F0F;}
	.st21{opacity:0.2;}
	.st22{opacity:0.4;}
	.st23{fill:#599558;}
	.st24{opacity:0.5;}
	.st25{opacity:0.4;fill:#FFFFFF;}
</style>
<g id="Background_Complete">
	<g>
		<rect y="382.4" class="st0" width="500" height="0.25"/>
		<rect x="428.22" y="398.49" class="st0" width="21.68" height="0.25"/>
		<rect x="310.56" y="393.31" class="st0" width="34.11" height="0.25"/>
		<rect x="396.59" y="389.21" class="st0" width="44.53" height="0.25"/>
		<rect x="161.88" y="394.25" class="st0" width="11.14" height="0.25"/>
		<rect x="114.58" y="394.25" class="st0" width="38.39" height="0.25"/>
		<rect x="66.31" y="390.03" class="st0" width="27.7" height="0.25"/>
		<path class="st0" d="M237.01,337.8H43.92c-3.15,0-5.71-2.56-5.71-5.71V60.66c0-3.15,2.56-5.71,5.71-5.71h193.1
			c3.15,0,5.71,2.56,5.71,5.71v271.43C242.72,335.24,240.16,337.8,237.01,337.8z M43.92,55.2c-3.01,0-5.46,2.45-5.46,5.46v271.43
			c0,3.01,2.45,5.46,5.46,5.46h193.1c3.01,0,5.46-2.45,5.46-5.46V60.66c0-3.01-2.45-5.46-5.46-5.46H43.92z"/>
		<path class="st0" d="M453.31,337.8h-193.1c-3.15,0-5.71-2.56-5.71-5.71V60.66c0-3.15,2.56-5.71,5.71-5.71h193.1
			c3.15,0,5.71,2.56,5.71,5.71v271.43C459.02,335.24,456.46,337.8,453.31,337.8z M260.21,55.2c-3.01,0-5.46,2.45-5.46,5.46v271.43
			c0,3.01,2.45,5.46,5.46,5.46h193.1c3.01,0,5.46-2.45,5.46-5.46V60.66c0-3.01-2.45-5.46-5.46-5.46H260.21z"/>
	</g>
	<g>
		<g>
			<path class="st1" d="M114.98,174.63c11.55,0,20.91-9.36,20.91-20.91c0-11.55-9.36-20.91-20.91-20.91h-2.57v41.82H114.98z"/>
			<circle class="st2" cx="112.41" cy="153.72" r="20.91"/>
			<path class="st1" d="M111.45,156.34c-15.43,0-27.99-12.56-27.99-27.99v-16.72c0-1.45,1.18-2.63,2.63-2.63
				c1.45,0,2.63,1.18,2.63,2.63v16.72c0,12.54,10.2,22.73,22.73,22.73c1.45,0,2.63,1.18,2.63,2.63S112.91,156.34,111.45,156.34z"/>
			<path class="st2" d="M62.83,126.35h46.52c3.19,0,5.51-3.02,4.7-6.1l-4.04-15.24c-0.56-2.13-2.49-3.61-4.7-3.61H66.87
				c-2.2,0-4.13,1.48-4.7,3.61l-4.04,15.24C57.32,123.33,59.64,126.35,62.83,126.35z"/>
		</g>
		<g>
			<path class="st1" d="M410.28,174.63c11.55,0,20.91-9.36,20.91-20.91c0-11.55-9.36-20.91-20.91-20.91h-2.56v41.82H410.28z"/>
			<circle class="st2" cx="407.71" cy="153.72" r="20.91"/>
			<path class="st1" d="M406.75,156.34c-15.43,0-27.99-12.56-27.99-27.99v-16.72c0-1.45,1.18-2.63,2.63-2.63
				c1.45,0,2.63,1.18,2.63,2.63v16.72c0,12.54,10.2,22.73,22.73,22.73c1.45,0,2.63,1.18,2.63,2.63S408.21,156.34,406.75,156.34z"/>
			<path class="st2" d="M358.13,126.35h46.52c3.19,0,5.51-3.02,4.7-6.1l-4.04-15.24c-0.56-2.13-2.49-3.61-4.7-3.61h-38.45
				c-2.2,0-4.13,1.48-4.7,3.61l-4.04,15.24C352.62,123.33,354.94,126.35,358.13,126.35z"/>
		</g>
		<g>
			<g>
				
					<rect x="133.98" y="256.92" transform="matrix(-1 -1.224647e-16 1.224647e-16 -1 283.169 572.7766)" class="st3" width="15.21" height="58.93"/>
				<polygon class="st4" points="92.75,315.85 143.22,315.85 150.84,246.88 100.37,246.88 				"/>
				<polygon class="st2" points="87.28,315.85 139.42,315.85 147.04,246.88 94.91,246.88 				"/>
				<polygon class="st5" points="135.65,310.42 142.07,252.32 98.67,252.32 92.25,310.42 				"/>
				<path class="st2" d="M126.69,296.33l0.26-2.37c1.61-14.58-7.49-27.57-19.31-27.57l0,0l-0.26,2.37
					C105.76,283.34,114.86,296.33,126.69,296.33L126.69,296.33z"/>
			</g>
			<g>
				<g>
					
						<rect x="59.08" y="315.85" transform="matrix(-1 -1.224647e-16 1.224647e-16 -1 163.0067 698.2517)" class="st3" width="44.84" height="66.55"/>
					<polygon class="st4" points="63.59,382.4 59.08,382.4 59.08,369.57 68.32,369.57 					"/>
					
						<rect x="184.75" y="315.85" transform="matrix(-1 -1.224647e-16 1.224647e-16 -1 414.3461 698.2517)" class="st3" width="44.84" height="66.55"/>
					
						<rect x="59.08" y="315.85" transform="matrix(-1 -1.224647e-16 1.224647e-16 -1 247.7738 690.3794)" class="st4" width="129.61" height="58.67"/>
					<polygon class="st4" points="184.18,382.4 188.69,382.4 188.69,369.57 179.45,369.57 					"/>
					
						<rect x="62.58" y="319.52" transform="matrix(-1 -1.224647e-16 1.224647e-16 -1 247.7738 662.7214)" class="st3" width="122.61" height="23.68"/>
					<path class="st4" d="M115.71,334.96h16.35c7.1,0,13.89-2.92,18.78-8.08l0,0H96.93l0,0
						C101.82,332.04,108.61,334.96,115.71,334.96z"/>
					
						<rect x="62.58" y="347.02" transform="matrix(-1 -1.224647e-16 1.224647e-16 -1 247.7738 717.7244)" class="st3" width="122.61" height="23.68"/>
					<path class="st4" d="M115.71,362.46h16.35c7.1,0,13.89-2.92,18.78-8.08l0,0H96.93l0,0
						C101.82,359.54,108.61,362.46,115.71,362.46z"/>
				</g>
			</g>
			<g>
				<path class="st3" d="M180.48,313.14h1.16c-0.01-2.39,0.01-8.44,0.12-22.31c0.21-25.14,0.61-26.68,0.61-26.68l-2.76,11.61
					C177.86,288.61,180.12,301.53,180.48,313.14z"/>
				<path class="st3" d="M178.19,274.03c-3.97-4.73-12.45-6.11-21.13-7.29c-3.41-0.46,8.96,7.33,15,12.86
					c4.7,4.3,7.7,5.49,8.99,9.77C181.72,284.03,181.61,278.11,178.19,274.03z"/>
				<path class="st3" d="M183.46,282.48c3.97-4.73,12.45-6.11,21.13-7.29c3.41-0.46-8.96,7.33-15,12.86c-4.7,4.3-7.7,5.49-8.99,9.77
					C179.93,292.49,180.04,286.56,183.46,282.48z"/>
				<path class="st3" d="M181.76,263.04c2.98-5.65,10.47-10.98,18.87-13c3.3-0.79-7.64,10.44-11.8,17.69
					c-3.23,5.63-7.52,12.24-8.18,16.99C179.64,275.31,178.78,268.69,181.76,263.04z"/>
				<g>
					<path class="st4" d="M181.4,315.85L181.4,315.85c-3.55,0-6.48-1.78-6.68-4.05l-0.59-3.89h14.54l-0.59,3.89
						C187.88,314.08,184.95,315.85,181.4,315.85z"/>
					<polygon class="st4" points="189.62,309.41 173.19,309.41 172.72,305.08 190.09,305.08 					"/>
				</g>
			</g>
		</g>
		<g>
			<g>
				<g>
					<g>
						
							<rect x="169.54" y="80.59" transform="matrix(-1 -1.224647e-16 1.224647e-16 -1 499.2862 307.3146)" class="st3" width="160.21" height="146.13"/>
						
							<rect x="165.93" y="80.59" transform="matrix(-1 -1.224647e-16 1.224647e-16 -1 494.1139 307.3146)" class="st2" width="162.24" height="146.13"/>
						
							<rect x="180.54" y="79.01" transform="matrix(-1.836970e-16 1 -1 -1.836970e-16 400.7143 -93.3997)" class="st6" width="133.04" height="149.3"/>
						<polygon class="st5" points="303.39,220.18 244.63,87.14 224.67,87.14 283.43,220.18 						"/>
						<polygon class="st5" points="277.77,220.18 219.01,87.14 205.27,87.14 264.03,220.18 						"/>
						
							<rect x="157.46" y="149.8" transform="matrix(-1.836970e-16 1 -1 -1.836970e-16 377.6407 -70.326)" class="st3" width="133.04" height="7.72"/>
						
							<rect x="208.78" y="149.8" transform="matrix(-1.836970e-16 1 -1 -1.836970e-16 428.9601 -121.6454)" class="st3" width="133.04" height="7.72"/>
						
							<rect x="150.54" y="148.42" transform="matrix(-1.836970e-16 1 -1 -1.836970e-16 374.8722 -68.2713)" class="st2" width="142.06" height="9.76"/>
						
							<rect x="201.86" y="148.42" transform="matrix(-1.836970e-16 1 -1 -1.836970e-16 426.1917 -119.5908)" class="st2" width="142.06" height="9.76"/>
						
							<rect x="106.23" y="153.31" transform="matrix(-1.836970e-16 1 -1 -1.836970e-16 326.4071 -19.0926)" class="st3" width="133.04" height="0.69"/>
					</g>
				</g>
			</g>
			<g>
				<g>
					<path class="st3" d="M163.22,72.17h173.57c0.46,0,0.83,0.38,0.83,0.83l0,0c0,0.46-0.38,0.83-0.83,0.83H163.22
						c-0.46,0-0.83-0.38-0.83-0.83l0,0C162.38,72.55,162.76,72.17,163.22,72.17z"/>
					<path class="st3" d="M329.75,77.68L329.75,77.68c0.62,0,1.13-0.51,1.13-1.13v-2.42c0-0.62-0.51-1.13-1.13-1.13l0,0
						c-0.62,0-1.13,0.51-1.13,1.13v2.42C328.62,77.17,329.13,77.68,329.75,77.68z"/>
					<path class="st3" d="M175.8,77.68L175.8,77.68c0.62,0,1.13-0.51,1.13-1.13v-2.42c0-0.62-0.51-1.13-1.13-1.13l0,0
						c-0.62,0-1.13,0.51-1.13,1.13v2.42C174.68,77.17,175.18,77.68,175.8,77.68z"/>
				</g>
				
					<rect x="163.48" y="73.01" transform="matrix(-1 -1.224647e-16 1.224647e-16 -1 489.0943 260.4517)" class="st7" width="162.13" height="114.44"/>
			</g>
		</g>
		<g>
			<g>
				<path class="st6" d="M340.29,283.67h-27.95c-2.97,0-5.38-2.41-5.38-5.38v-12.94c0-2.97,2.41-5.38,5.38-5.38h27.95
					c2.97,0,5.38,2.41,5.38,5.38v12.94C345.67,281.26,343.26,283.67,340.29,283.67z"/>
				<path class="st3" d="M343.86,260.67h-35.1c-1,0-1.81-0.81-1.81-1.81v-1.46c0-1,0.81-1.81,1.81-1.81h35.1
					c1,0,1.81,0.81,1.81,1.81v1.46C345.67,259.86,344.86,260.67,343.86,260.67z"/>
			</g>
			<g>
				<path class="st4" d="M307.52,309.95c0,0,0.51,16.66,19.93,16.66c19.42,0,19.93-16.66,19.93-16.66H307.52z"/>
			</g>
			<g>
				<path class="st4" d="M351.8,309.95c0,0,0.51,16.66,19.93,16.66c19.42,0,19.93-16.66,19.93-16.66H351.8z"/>
			</g>
			<g>
				<path class="st4" d="M382.05,283.67h-38.41c-4.08,0-7.4-3.31-7.4-7.4v-19.64c0-4.08,3.31-7.4,7.4-7.4h38.41
					c4.08,0,7.4,3.31,7.4,7.4v19.64C389.44,280.36,386.13,283.67,382.05,283.67z"/>
				<path class="st2" d="M386.96,250.19h-48.24c-1.37,0-2.48-1.11-2.48-2.48v-2.01c0-1.37,1.11-2.48,2.48-2.48h48.24
					c1.37,0,2.48,1.11,2.48,2.48v2.01C389.44,249.08,388.33,250.19,386.96,250.19z"/>
			</g>
			<g>
				
					<rect x="292.9" y="299.75" transform="matrix(-1 -1.224647e-16 1.224647e-16 -1 590.8305 682.1528)" class="st3" width="5.04" height="82.64"/>
				<g>
					<g>
						<rect x="411.13" y="283.67" class="st3" width="27.29" height="16.08"/>
						
							<rect x="275.45" y="283.67" transform="matrix(-1 -1.224647e-16 1.224647e-16 -1 686.5741 583.4267)" class="st2" width="135.68" height="16.08"/>
					</g>
				</g>
				<g>
					<g>
						<rect x="411.13" y="326.62" class="st3" width="27.29" height="16.08"/>
						
							<rect x="275.45" y="326.62" transform="matrix(-1 -1.224647e-16 1.224647e-16 -1 686.5741 669.3197)" class="st2" width="135.68" height="16.08"/>
					</g>
				</g>
				
					<rect x="428.58" y="299.75" transform="matrix(-1 -1.224647e-16 1.224647e-16 -1 862.1924 682.1528)" class="st3" width="5.04" height="82.64"/>
				
					<rect x="406.09" y="299.75" transform="matrix(-1 -1.224647e-16 1.224647e-16 -1 817.2168 682.1528)" class="st2" width="5.04" height="82.64"/>
				
					<rect x="275.45" y="299.75" transform="matrix(-1 -1.224647e-16 1.224647e-16 -1 555.9313 682.1528)" class="st2" width="5.04" height="82.64"/>
			</g>
		</g>
	</g>
</g>
<g id="Background_Simple" class="st8">
	<g class="st9">
		<path class="st10" d="M423.99,265.32c10.08,46.03-18.09,75.73-57.11,74.35c-18.71-0.66-41.05-21.23-59.43-25.82
			c-23.98-5.98-44.75,1.77-67.69,2.91c-57.05,2.82-56.3-20.46-94.74-50.48C118,245.18,74.46,247.49,60,210.54
			c-17.68-45.16,32.99-66.98,71.5-60.3c44.24,7.68,56.49-47.4,124.07-41.3C322.04,114.94,409.79,195.98,423.99,265.32z"/>
		<path class="st11" d="M423.99,265.32c10.08,46.03-18.09,75.73-57.11,74.35c-18.71-0.66-41.05-21.23-59.43-25.82
			c-23.98-5.98-44.75,1.77-67.69,2.91c-57.05,2.82-56.3-20.46-94.74-50.48C118,245.18,74.46,247.49,60,210.54
			c-17.68-45.16,32.99-66.98,71.5-60.3c44.24,7.68,56.49-47.4,124.07-41.3C322.04,114.94,409.79,195.98,423.99,265.32z"/>
	</g>
</g>
<g id="Shadow_1_">
	<ellipse id="_x3C_Path_x3E__137_" class="st2" cx="250" cy="416.24" rx="193.89" ry="11.32"/>
</g>
<g id="Login">
	<g>
		<g>
			<path class="st12" d="M260.41,365.5H132.84c-4.22,0-7.81-3.42-8.03-7.63L113.4,136.31c-0.22-4.21,3.02-7.63,7.24-7.63h127.57
				c4.21,0,7.81,3.42,8.03,7.63l11.42,221.55C267.87,362.08,264.63,365.5,260.41,365.5z"/>
			<path class="st13" d="M260.41,365.5H132.84c-4.22,0-7.81-3.42-8.03-7.63L113.4,136.31c-0.22-4.21,3.02-7.63,7.24-7.63h127.57
				c4.21,0,7.81,3.42,8.03,7.63l11.42,221.55C267.87,362.08,264.63,365.5,260.41,365.5z"/>
		</g>
		<rect x="221.51" y="121.46" class="st12" width="14.11" height="1"/>
		<rect x="211.45" y="121.46" class="st12" width="5.17" height="1"/>
		<path class="st12" d="M265.9,351.44H143.89c-4.03,0-7.47-3.27-7.68-7.3l-10.92-211.89c-0.21-4.03,2.89-7.3,6.92-7.3h122.01
			c4.03,0,7.47,3.27,7.68,7.3l10.92,211.89C273.03,348.18,269.93,351.44,265.9,351.44z"/>
		<path class="st5" d="M265.9,346.57H143.89c-1.42,0-2.73-1.25-2.81-2.67L130.16,132c-0.04-0.77,0.27-1.27,0.54-1.56
			c0.27-0.28,0.75-0.62,1.51-0.62h122.01c1.42,0,2.73,1.25,2.81,2.68l10.92,211.89c0.04,0.77-0.27,1.27-0.54,1.56
			C267.14,346.23,266.67,346.57,265.9,346.57z M132.22,130.08c-0.68,0-1.1,0.29-1.33,0.54c-0.24,0.25-0.51,0.69-0.47,1.37
			l10.92,211.89c0.07,1.3,1.26,2.44,2.56,2.44H265.9c0.68,0,1.1-0.29,1.33-0.54c0.24-0.25,0.51-0.69,0.47-1.37l-10.92-211.89
			c-0.07-1.3-1.26-2.44-2.56-2.44H132.22z"/>
		
			<ellipse transform="matrix(0.6979 -0.7162 0.7162 0.6979 -70.117 194.985)" class="st14" cx="196.09" cy="180.61" rx="36" ry="37.9"/>
		<path class="st5" d="M225.97,180.61c0.27,5.16-0.79,10.01-2.88,14.23c-4.56,9.31-14.11,15.65-25.47,15.65s-21.56-6.33-27.08-15.65
			c-2.52-4.23-4.08-9.07-4.34-14.23c-0.85-16.51,11.84-29.88,28.34-29.88S225.12,164.11,225.97,180.61z"/>
		<path class="st15" d="M223.1,194.85c-4.56,9.31-14.11,15.65-25.47,15.65s-21.56-6.33-27.08-15.65c7.26-5.03,16.14-7.96,25.86-7.96
			S215.31,189.82,223.1,194.85z"/>
		
			<ellipse transform="matrix(0.6979 -0.7162 0.7162 0.6979 -62.9542 191.5219)" class="st15" cx="195.56" cy="170.39" rx="12.97" ry="13.66"/>
		<g>
			<path class="st5" d="M248.41,269.02h-95.53c-1.71,0-3.16-1.38-3.25-3.09l-0.72-14.04c-0.09-1.71,1.22-3.09,2.93-3.09h95.53
				c1.71,0,3.16,1.38,3.25,3.09l0.72,14.04C251.43,267.64,250.12,269.02,248.41,269.02z"/>
			<path class="st16" d="M219.16,241.1h-39.9c-1.71,0-3.16-1.38-3.25-3.09l-0.15-2.98c-0.09-1.71,1.22-3.09,2.93-3.09h39.9
				c1.71,0,3.16,1.38,3.25,3.09l0.15,2.98C222.17,239.71,220.86,241.1,219.16,241.1z"/>
			<path class="st16" d="M233.99,336.31h-59.76c-2.91,0-5.38-2.36-5.53-5.26l-0.36-6.89c-0.15-2.91,2.08-5.26,4.99-5.26h59.76
				c2.91,0,5.38,2.36,5.53,5.26l0.36,6.89C239.13,333.95,236.9,336.31,233.99,336.31z"/>
			<path class="st5" d="M250.16,302.86h-95.53c-1.71,0-3.16-1.38-3.25-3.09l-0.72-14.04c-0.09-1.71,1.22-3.09,2.93-3.09h95.53
				c1.71,0,3.16,1.38,3.25,3.09l0.72,14.04C253.17,301.47,251.86,302.86,250.16,302.86z"/>
			<path class="st17" d="M165.03,258.91c0.1,1.89-1.35,3.42-3.24,3.42s-3.5-1.53-3.6-3.42c-0.1-1.89,1.35-3.42,3.24-3.42
				S164.93,257.02,165.03,258.91z"/>
			<path class="st17" d="M175.54,258.91c0.1,1.89-1.35,3.42-3.24,3.42c-1.89,0-3.5-1.53-3.6-3.42c-0.1-1.89,1.35-3.42,3.24-3.42
				S175.44,257.02,175.54,258.91z"/>
			<path class="st17" d="M186.04,258.91c0.1,1.89-1.35,3.42-3.24,3.42c-1.89,0-3.5-1.53-3.6-3.42c-0.1-1.89,1.35-3.42,3.24-3.42
				S185.94,257.02,186.04,258.91z"/>
			<path class="st17" d="M196.55,258.91c0.1,1.89-1.35,3.42-3.24,3.42s-3.5-1.53-3.6-3.42c-0.1-1.89,1.35-3.42,3.24-3.42
				C194.84,255.49,196.45,257.02,196.55,258.91z"/>
			<path class="st17" d="M166.77,292.75c0.1,1.89-1.35,3.42-3.24,3.42c-1.89,0-3.5-1.53-3.6-3.42c-0.1-1.89,1.35-3.42,3.24-3.42
				S166.67,290.86,166.77,292.75z"/>
			<path class="st17" d="M177.28,292.75c0.1,1.89-1.35,3.42-3.24,3.42c-1.89,0-3.5-1.53-3.6-3.42c-0.1-1.89,1.35-3.42,3.24-3.42
				S177.18,290.86,177.28,292.75z"/>
			<path class="st17" d="M187.79,292.75c0.1,1.89-1.35,3.42-3.24,3.42c-1.89,0-3.5-1.53-3.6-3.42c-0.1-1.89,1.35-3.42,3.24-3.42
				C186.08,289.33,187.69,290.86,187.79,292.75z"/>
			<path class="st17" d="M198.29,292.75c0.1,1.89-1.35,3.42-3.24,3.42c-1.89,0-3.5-1.53-3.6-3.42c-0.1-1.89,1.35-3.42,3.24-3.42
				C196.59,289.33,198.2,290.86,198.29,292.75z"/>
			<path class="st17" d="M208.8,292.75c0.1,1.89-1.35,3.42-3.24,3.42s-3.5-1.53-3.6-3.42c-0.1-1.89,1.35-3.42,3.24-3.42
				S208.7,290.86,208.8,292.75z"/>
			<path class="st17" d="M219.31,292.75c0.1,1.89-1.35,3.42-3.24,3.42c-1.89,0-3.5-1.53-3.6-3.42c-0.1-1.89,1.35-3.42,3.24-3.42
				S219.21,290.86,219.31,292.75z"/>
		</g>
	</g>
</g>
<g id="Character_1_">
	<g>
		<g>
			<path class="st18" d="M333.03,176.62c0.25,0.37,0.38,0.57,0.54,0.84l0.45,0.75c0.29,0.49,0.54,0.99,0.8,1.48
				c0.5,0.99,0.97,1.98,1.4,2.98c0.86,2,1.56,4.04,2.17,6.1c1.23,4.11,1.98,8.32,2.37,12.54l0.08,0.79
				c0.01,0.11,0.02,0.29,0.03,0.48l0.02,0.54c0.01,0.71-0.02,1.41-0.12,2.08c-0.19,1.34-0.55,2.58-0.99,3.72
				c-0.9,2.28-2.13,4.22-3.46,5.98c-2.71,3.51-5.79,6.32-9.31,8.81l-2.75-3.23c2.47-2.86,4.87-6.03,6.64-9.19
				c0.9-1.58,1.6-3.2,2.03-4.72c0.2-0.76,0.31-1.49,0.33-2.14c0.02-0.33,0-0.64-0.03-0.93l-0.03-0.21
				c-0.01-0.06-0.01-0.14-0.04-0.27l-0.13-0.7c-0.65-3.75-1.55-7.44-2.72-11c-0.57-1.79-1.29-3.51-2.01-5.21
				c-0.36-0.85-0.75-1.68-1.15-2.48l-0.62-1.17l-0.31-0.56l-0.25-0.44L333.03,176.62z"/>
			<path class="st19" d="M323.7,223.77l3.62,7.65l2.87-6.46c0,0-2.54-5.6-5.99-5.09L323.7,223.77z"/>
			<polygon class="st19" points="329.91,231.8 332.79,227.08 330.19,224.95 327.32,231.42 			"/>
			<path class="st15" d="M313.63,408.22c0.77,0,1.62-0.16,2.21-0.3c0.08-0.02,0.14-0.08,0.15-0.16c0.01-0.08-0.02-0.16-0.09-0.2
				c-0.29-0.19-2.83-1.83-3.81-1.39c-0.15,0.07-0.35,0.22-0.39,0.56c-0.06,0.44,0.05,0.8,0.33,1.05
				C312.4,408.11,312.99,408.22,313.63,408.22z M315.28,407.63c-1.46,0.29-2.55,0.24-2.98-0.15c-0.18-0.16-0.25-0.4-0.2-0.71
				c0.02-0.17,0.1-0.22,0.17-0.25C312.78,406.29,314.25,407.01,315.28,407.63z"/>
			<path class="st15" d="M315.8,407.92c0.03,0,0.07-0.01,0.1-0.03c0.06-0.04,0.1-0.1,0.1-0.17c0-0.1-0.01-2.51-0.92-3.32
				c-0.24-0.21-0.53-0.3-0.84-0.27c-0.5,0.06-0.63,0.37-0.67,0.55c-0.19,0.94,1.33,2.75,2.13,3.2
				C315.73,407.91,315.77,407.92,315.8,407.92z M314.37,404.53c0.16,0,0.31,0.06,0.44,0.17c0.54,0.48,0.73,1.83,0.78,2.64
				c-0.8-0.64-1.75-1.99-1.63-2.57c0.02-0.09,0.07-0.21,0.33-0.24C314.32,404.53,314.35,404.53,314.37,404.53z"/>
			<path class="st15" d="M304.19,404.14c0.05-0.05,0.06-0.12,0.04-0.19c-0.02-0.08-0.1-0.14-0.18-0.14
				c-0.42-0.02-4.01-0.17-4.82,0.71c-0.02,0.02-0.03,0.04-0.05,0.06c-0.13,0.18-0.16,0.4-0.09,0.62c0.13,0.37,0.38,0.62,0.73,0.73
				c1.16,0.36,3.21-0.94,4.33-1.75C304.17,404.15,304.18,404.15,304.19,404.14z M299.53,404.77c0.45-0.48,2.42-0.61,3.91-0.59
				c-1.56,1.06-2.84,1.56-3.5,1.36c-0.23-0.07-0.38-0.23-0.47-0.48c-0.04-0.1-0.03-0.18,0.03-0.25
				C299.51,404.79,299.52,404.78,299.53,404.77z"/>
			<path class="st15" d="M304.19,404.14c0.01-0.01,0.02-0.02,0.03-0.04c0.04-0.06,0.04-0.14,0-0.2c-0.05-0.08-1.16-2.05-2.49-2.41
				c-0.4-0.11-0.79-0.06-1.14,0.15c-0.48,0.28-0.5,0.6-0.44,0.82c0.26,0.93,2.81,1.74,3.9,1.74
				C304.1,404.2,304.15,404.18,304.19,404.14z M300.6,402.13c0.04-0.04,0.1-0.09,0.19-0.15c0.26-0.15,0.53-0.19,0.84-0.11
				c0.87,0.23,1.69,1.35,2.05,1.9c-1.18-0.14-2.99-0.87-3.15-1.42C300.52,402.33,300.5,402.24,300.6,402.13z"/>
			<path class="st19" d="M315.2,147.33c-0.97,4.97-3.16,15.81,0.31,19.13c0,0-1.36,5.04-10.59,5.04c-10.16,0-4.85-5.04-4.85-5.04
				c5.54-1.32,5.4-5.44,4.43-9.3L315.2,147.33z"/>
			<path class="st17" d="M298.28,135.61c0.06,0,0.12-0.01,0.18-0.04c0.2-0.1,0.28-0.34,0.18-0.53c-0.98-1.96-2.8-2.19-2.88-2.2
				c-0.22-0.03-0.41,0.13-0.44,0.35c-0.02,0.22,0.13,0.41,0.35,0.44l0,0c0.06,0.01,1.48,0.2,2.26,1.77
				C297.99,135.53,298.13,135.61,298.28,135.61z"/>
			<path class="st20" d="M295.25,139.95c0,0-1.49,2.75-2.92,3.98c0.78,0.94,2.33,0.74,2.33,0.74L295.25,139.95z"/>
			<path class="st17" d="M295.99,138.87c-0.08,0.67-0.51,1.17-0.94,1.12c-0.44-0.05-0.73-0.64-0.64-1.31
				c0.08-0.67,0.51-1.17,0.94-1.12C295.78,137.62,296.07,138.2,295.99,138.87z"/>
			<path class="st17" d="M295.54,137.62l-1.55-0.66C293.98,136.96,294.65,138.32,295.54,137.62z"/>
			<polygon class="st19" points="313.02,402.24 304.86,404.14 299.9,385.38 308.06,383.47 			"/>
			<polygon class="st19" points="325.54,407.72 317.16,407.72 317.82,388.33 326.2,388.33 			"/>
			<path class="st17" d="M316.5,406.75h9.41c0.34,0,0.62,0.24,0.67,0.57l1.07,7.45c0.11,0.77-0.55,1.5-1.34,1.49
				c-3.28-0.06-4.86-0.25-9-0.25c-2.55,0-6.27,0.26-9.78,0.26c-3.44,0-3.7-3.48-2.24-3.79c6.56-1.41,7.6-3.36,9.81-5.22
				C315.5,406.93,316,406.75,316.5,406.75z"/>
			<path class="st17" d="M304.14,402.89l8.55-3.93c0.31-0.14,0.66-0.04,0.85,0.24l4.09,6.32c0.42,0.66,0.13,1.6-0.6,1.91
				c-3,1.32-4.52,1.81-8.28,3.54c-2.31,1.06-6.99,3.51-10.18,4.97c-3.12,1.44-4.82-1.61-3.62-2.51c5.37-4.03,6.91-6.87,8.14-9.49
				C303.3,403.47,303.68,403.1,304.14,402.89z"/>
			<g>
				<polygon class="st21" points="299.91,385.38 302.56,395.44 310.62,393.15 308.07,383.48 				"/>
				<polygon class="st21" points="326.2,388.33 317.82,388.33 317.49,398.33 325.87,398.33 				"/>
			</g>
			<path class="st17" d="M329.96,168.36c3.48,0.76,7.2,13.28,7.2,13.28l-9.84,10.46c0,0-8.16-11.76-6.5-16.08
				C322.55,171.52,325.85,167.46,329.96,168.36z"/>
			<path class="st22" d="M324.44,176.33c-1.76-1.61-2.95-1.13-3.76,0.15c-0.8,3.72,3.94,11.51,5.85,14.46
				C327.41,187.42,328.42,179.99,324.44,176.33z"/>
			<path class="st17" d="M285.91,168.61c0,0-3.99,1.41,4,50.55c13.5,0,27.45,0,34.02,0c-0.57-13.85-0.59-22.38,6.03-50.8
				c0,0-7.13-1.55-14.45-1.9c-5.72-0.28-10.42-0.46-15.45,0C293.43,167.07,285.91,168.61,285.91,168.61z"/>
			<path class="st22" d="M285.6,187.47c0.22,2.39,0.51,5.08,0.89,8.12c2.79-2.51,5.06-9.65,4.23-13.81
				C288.77,183.23,286.97,185.47,285.6,187.47z"/>
			<path class="st18" d="M289.24,180.02c-1.85,4.67-3.89,9.12-6.18,13.56c-2.29,4.43-4.74,8.78-7.99,13l-0.64,0.79l-0.32,0.39
				c-0.11,0.13-0.2,0.25-0.37,0.43c-0.62,0.68-1.29,1.27-1.98,1.76c-1.38,0.98-2.8,1.61-4.18,2.09c-2.76,0.93-5.44,1.26-8.04,1.42
				c-5.23,0.21-10.17-0.27-15.16-1.35l0.55-4.21c2.3,0.01,4.71-0.04,7.03-0.19c2.34-0.12,4.65-0.37,6.87-0.77
				c2.21-0.37,4.35-0.93,6.14-1.71c0.88-0.39,1.65-0.87,2.21-1.35c0.28-0.24,0.51-0.48,0.68-0.72c0.04-0.03,0.13-0.17,0.2-0.27
				l0.23-0.33l0.47-0.66c2.46-3.64,4.63-7.88,6.69-12.11c2.03-4.25,3.99-8.66,5.82-12.97L289.24,180.02z"/>
			<path class="st17" d="M285.91,168.61c-4.16,1.01-9.29,12.44-9.29,12.44l8.64,12.7c0,0,11.5-14.48,10.14-18.91
				C293.97,170.23,290.96,167.37,285.91,168.61z"/>
			<path class="st19" d="M247.33,208.51l-7.21-3.33l-0.72,7.17c0,0,6.02,1.77,8.99-0.04L247.33,208.51z"/>
			<polygon class="st19" points="235.81,204.46 235.12,209.92 239.4,212.35 240.12,205.18 			"/>
			<path class="st19" d="M318.82,139.36c-1.52,8.17-2,11.66-6.68,15.38c-7.04,5.58-16.75,1.92-17.69-6.54
				c-0.85-7.62,1.78-19.7,10.25-21.98C313.04,123.97,320.34,131.19,318.82,139.36z"/>
			<path class="st17" d="M300.87,141.08c-0.47,4.17-0.65,14.99,8.51,15.33c11.22,0.42,14.58-9.17,13.58-13
				c5.83-4.75,6.68-12.92,0.12-19.17c-6.56-6.25-21-2.76-25.03,3.33C293.04,135.13,300.87,141.08,300.87,141.08z"/>
			<path class="st23" d="M312.1,126.68c-0.54-4.39-0.12-7.43,3.99-7.43c4.11,0,9.74,1.49,11.8,5.71c2.06,4.21,2.23,10.79-3.52,10.13
				C318.62,134.42,312.75,131.94,312.1,126.68z"/>
			<path class="st17" d="M318.48,125.62c-0.98-5.24,3.69-20,15.09-20.96c5.28-0.44,7.72,5.24,4.96,6.17
				c4.99-0.06,8.2,6.55,3.54,7.54c3.69,2.36,2.77,7.2-2.48,9.58C335.71,129.71,319.83,132.88,318.48,125.62z"/>
			<path class="st17" d="M330.65,131.25c-3.67,0-7.5-0.54-9.88-2.13c-1.44-0.97-2.23-2.25-2.35-3.81c-0.01-0.14,0.09-0.26,0.23-0.27
				c0.15-0.01,0.26,0.09,0.27,0.23c0.11,1.4,0.82,2.55,2.13,3.43c4.52,3.03,14.98,2.05,18.26,0.98c2.82-0.92,4.73-2.7,5.11-4.77
				c0.28-1.52-0.32-2.95-1.67-4.05c-0.11-0.09-0.12-0.24-0.04-0.35c0.09-0.11,0.24-0.12,0.35-0.04c1.49,1.2,2.16,2.85,1.85,4.53
				c-0.41,2.25-2.45,4.18-5.44,5.15C337.75,130.72,334.28,131.25,330.65,131.25z"/>
			<path class="st19" d="M298.32,139.98c-1,1.39-1.29,3.12-1.07,4.51c0.33,2.1,2.38,2.24,3.86,0.89c1.33-1.21,2.76-3.76,1.67-5.5
				C301.7,138.17,299.46,138.39,298.32,139.98z"/>
			<path class="st23" d="M298.89,219.16c0,0,4.86,57.49,9.9,89.89c4.07,26.17,7.29,87.34,7.29,87.34h11.42
				c0,0,4.06-59.34,1.99-85.23c-5.23-65.5,6.44-70.83-5.57-92.01H298.89z"/>
			<path class="st22" d="M313.27,240.89c-4.61,4.71-8.12,10.34-10.79,16.28c1.33,12.92,2.91,27.26,4.59,39.82
				C312.27,283.86,316.72,263.66,313.27,240.89z"/>
			<path class="st23" d="M290.9,218.8c0,0-10.55,62.79-12.21,91.09c4.14,26.17,21.08,81.49,21.08,81.49l10.39-3.76
				c0,0-5.75-60.32-12.03-76.83c14.07-47.37,24.41-59.34,21.4-91.62C312.35,219.16,290.9,218.8,290.9,218.8z"/>
			<polygon class="st17" points="298.38,394.14 312.42,390.33 311.62,384.73 296.59,388.8 			"/>
			<polygon class="st17" points="314.52,396.62 329.07,396.62 329.83,391.52 314.44,391 			"/>
			<g>
				<path class="st23" d="M324.44,217.16l1.53,3.05c0.12,0.24-0.16,0.48-0.55,0.48h-35.68c-0.31,0-0.56-0.15-0.58-0.34l-0.31-3.05
					c-0.02-0.21,0.24-0.39,0.58-0.39h34.45C324.14,216.91,324.36,217.01,324.44,217.16z"/>
				<path class="st24" d="M324.44,217.16l1.53,3.05c0.12,0.24-0.16,0.48-0.55,0.48h-35.68c-0.31,0-0.56-0.15-0.58-0.34l-0.31-3.05
					c-0.02-0.21,0.24-0.39,0.58-0.39h34.45C324.14,216.91,324.36,217.01,324.44,217.16z"/>
			</g>
			<path class="st15" d="M319.81,221.02h0.92c0.18,0,0.32-0.09,0.31-0.21l-0.43-3.96c-0.01-0.12-0.17-0.21-0.36-0.21h-0.92
				c-0.18,0-0.32,0.09-0.31,0.21l0.43,3.96C319.47,220.92,319.63,221.02,319.81,221.02z"/>
			<g>
				<path class="st15" d="M307.43,191.88c-0.23,0-0.42-0.15-0.48-0.37c-3.26-12.05-10.04-21.97-13.28-23.5
					c-0.36-0.17-0.66-0.22-0.84-0.14c-0.25,0.11-0.55,0-0.66-0.25c-0.11-0.25,0-0.55,0.25-0.66c0.47-0.21,1.03-0.16,1.68,0.15
					c3.45,1.63,10.29,11.43,13.71,23.77c2.45-0.03,6.23-0.34,7.15-0.41c1.14-1.36,9.53-11.84,6.39-23.3
					c-0.07-0.27,0.08-0.54,0.35-0.61c0.26-0.07,0.54,0.08,0.61,0.35c3.49,12.76-6.63,24.27-6.74,24.38
					c-0.08,0.09-0.2,0.15-0.33,0.16C315.2,191.44,310.21,191.88,307.43,191.88z"/>
				<g>
					<g>
						<path class="st12" d="M323.99,198.94c-5.45-10.22-7.68-10.93-8.65-14.22c0,0,0.88-2.48,3.11-4.99
							c-0.67-0.19-2.08-0.47-2.97-0.64c0.1-0.45,0.2-0.89,0.31-1.31c-0.74-0.2-2.27,0.01-3.05,0.14l-0.03-1.01
							c0,0-2.76-0.55-3.88-0.25c0.11,0.46,0.22,0.95,0.33,1.44c-0.97,0.19-2.53,0.5-3.26,0.7c2.12,2.39,2.89,4.94,3.05,5.57
							c-2.94,5.04-14.36,37.51,4.22,39.95C331.75,226.77,329.44,209.16,323.99,198.94z"/>
						<path class="st25" d="M323.99,198.94c-5.45-10.22-7.68-10.93-8.65-14.22c0,0,0.88-2.48,3.11-4.99
							c-0.67-0.19-2.08-0.47-2.97-0.64c0.1-0.45,0.2-0.89,0.31-1.31c-0.74-0.2-2.27,0.01-3.05,0.14l-0.03-1.01
							c0,0-2.76-0.55-3.88-0.25c0.11,0.46,0.22,0.95,0.33,1.44c-0.97,0.19-2.53,0.5-3.26,0.7c2.12,2.39,2.89,4.94,3.05,5.57
							c-2.94,5.04-14.36,37.51,4.22,39.95C331.75,226.77,329.44,209.16,323.99,198.94z"/>
					</g>
					<path class="st23" d="M308.26,183.41c-0.14,0.25-0.13,1.19-0.15,1.56c-0.02,0.38,0.98,0.63,2.1,0.73s5.77,0.29,5.63-0.23
						c-0.15-0.52,0.23-1.23,0.25-1.67c0.02-0.44-1.85-0.46-3.42-0.4S308.57,182.85,308.26,183.41z"/>
				</g>
			</g>
			<path class="st15" d="M297.45,221.02h0.92c0.18,0,0.32-0.09,0.31-0.21l-0.43-3.96c-0.01-0.12-0.17-0.21-0.36-0.21h-0.92
				c-0.18,0-0.32,0.09-0.31,0.21l0.43,3.96C297.1,220.92,297.26,221.02,297.45,221.02z"/>
		</g>
	</g>
</g>
</svg>
